<svg width="1200" height="420" viewBox="0 0 1200 420" fill="none" xmlns="http://www.w3.org/2000/svg">
  <defs>
    <linearGradient id="bg" x1="0" y1="0" x2="1200" y2="420" gradientUnits="userSpaceOnUse">
      <stop stop-color="#040D1E"/>
      <stop offset="0.5" stop-color="#0B1D3C"/>
      <stop offset="1" stop-color="#14345E"/>
    </linearGradient>
    <radialGradient id="glowA" cx="0" cy="0" r="1" gradientUnits="userSpaceOnUse" gradientTransform="translate(1005 58) rotate(119) scale(280 430)">
      <stop stop-color="#22C8FF" stop-opacity="0.62"/>
      <stop offset="1" stop-color="#22C8FF" stop-opacity="0"/>
    </radialGradient>
    <radialGradient id="glowB" cx="0" cy="0" r="1" gradientUnits="userSpaceOnUse" gradientTransform="translate(880 340) rotate(-20) scale(410 240)">
      <stop stop-color="#7AFFF0" stop-opacity="0.28"/>
      <stop offset="1" stop-color="#7AFFF0" stop-opacity="0"/>
    </radialGradient>
    <linearGradient id="panelStroke" x1="118" y1="82" x2="1126" y2="356" gradientUnits="userSpaceOnUse">
      <stop stop-color="#64A6FF"/>
      <stop offset="1" stop-color="#4EE8CE"/>
    </linearGradient>
    <linearGradient id="pillA" x1="0" y1="0" x2="1" y2="1">
      <stop stop-color="#2C77FF"/>
      <stop offset="1" stop-color="#225BBD"/>
    </linearGradient>
    <linearGradient id="pillB" x1="0" y1="0" x2="1" y2="1">
      <stop stop-color="#1D4F87"/>
      <stop offset="1" stop-color="#173A62"/>
    </linearGradient>
    <linearGradient id="pillC" x1="0" y1="0" x2="1" y2="1">
      <stop stop-color="#1B5C52"/>
      <stop offset="1" stop-color="#15453D"/>
    </linearGradient>
  </defs>

  <rect width="1200" height="420" rx="30" fill="url(#bg)"/>
  <rect x="22" y="22" width="1156" height="376" rx="24" fill="#07152C" fill-opacity="0.5" stroke="#1D365E"/>
  <ellipse cx="1016" cy="76" rx="294" ry="180" fill="url(#glowA)"/>
  <ellipse cx="888" cy="348" rx="372" ry="138" fill="url(#glowB)"/>

  <g opacity="0.32">
    <path d="M86 118H1114" stroke="#2D4F7F"/>
    <path d="M86 154H1114" stroke="#2D4F7F"/>
    <path d="M86 190H1114" stroke="#2D4F7F"/>
    <path d="M86 226H1114" stroke="#2D4F7F"/>
    <path d="M86 262H1114" stroke="#2D4F7F"/>
    <path d="M86 298H1114" stroke="#2D4F7F"/>
    <path d="M86 334H1114" stroke="#2D4F7F"/>
  </g>

  <rect x="72" y="66" width="1056" height="288" rx="18" fill="#07192F" fill-opacity="0.7" stroke="url(#panelStroke)" stroke-opacity="0.72"/>

  <text x="96" y="122" fill="#D8E6FF" font-family="Segoe UI, Microsoft YaHei, Arial" font-size="14" letter-spacing="1.8">RUST NATIVE MARKDOWN WORKBENCH</text>
  <text x="96" y="188" fill="#FFFFFF" font-family="Segoe UI, Microsoft YaHei, Arial" font-size="70" font-weight="700">md-bider</text>
  <text x="96" y="236" fill="#BCD6FF" font-family="Segoe UI, Microsoft YaHei, Arial" font-size="24" font-weight="500">打开即写 · 本地文件流优先 · 离线可用</text>
  <text x="96" y="274" fill="#8FB3E8" font-family="Segoe UI, Microsoft YaHei, Arial" font-size="19">UTF-16/GBK 兼容 · 标签页并行 · IR/SV/WYSIWYG</text>

  <g>
    <rect x="96" y="302" width="214" height="42" rx="12" fill="url(#pillA)"/>
    <text x="118" y="329" fill="#FFFFFF" font-family="Segoe UI, Microsoft YaHei, Arial" font-size="17" font-weight="600">Offline First</text>

    <rect x="322" y="302" width="260" height="42" rx="12" fill="url(#pillB)" stroke="#5D97E5"/>
    <text x="344" y="329" fill="#DDEBFF" font-family="Segoe UI, Microsoft YaHei, Arial" font-size="17" font-weight="600">Rust Native Core</text>

    <rect x="594" y="302" width="268" height="42" rx="12" fill="url(#pillC)" stroke="#62D8C2"/>
    <text x="616" y="329" fill="#E1FFF8" font-family="Segoe UI, Microsoft YaHei, Arial" font-size="17" font-weight="600">UTF-16 / GBK Fallback</text>
  </g>

  <g opacity="0.9">
    <rect x="904" y="100" width="194" height="210" rx="14" fill="#0C203D" stroke="#4D81CD"/>
    <rect x="920" y="118" width="162" height="24" rx="8" fill="#1F3F6E"/>
    <rect x="920" y="152" width="162" height="10" rx="5" fill="#2E5E9E"/>
    <rect x="920" y="170" width="146" height="10" rx="5" fill="#2B548E"/>
    <rect x="920" y="188" width="132" height="10" rx="5" fill="#254C81"/>
    <rect x="920" y="214" width="162" height="74" rx="10" fill="#0B2D4C" stroke="#386AA9"/>
    <circle cx="951" cy="130" r="4" fill="#6EC2FF"/>
    <circle cx="969" cy="130" r="4" fill="#76E3D5"/>
    <circle cx="987" cy="130" r="4" fill="#FF9B62"/>
  </g>
</svg>
